<svg id="visual" viewBox="0 0 450 900" width="450" height="900" xmlns="http://www.w3.org/2000/svg" xmlns:xlink="http://www.w3.org/1999/xlink" version="1.1"><rect x="0" y="0" width="450" height="900" fill="#001220"></rect><path d="M0 103L15 112.3C30 121.7 60 140.3 90 151.7C120 163 150 167 180 161.3C210 155.7 240 140.3 270 137C300 133.7 330 142.3 360 142.3C390 142.3 420 133.7 435 129.3L450 125L450 901L435 901C420 901 390 901 360 901C330 901 300 901 270 901C240 901 210 901 180 901C150 901 120 901 90 901C60 901 30 901 15 901L0 901Z" fill="#ef7c00"></path><path d="M0 288L15 281.7C30 275.3 60 262.7 90 267.2C120 271.7 150 293.3 180 297.2C210 301 240 287 270 278.8C300 270.7 330 268.3 360 268.8C390 269.3 420 272.7 435 274.3L450 276L450 901L435 901C420 901 390 901 360 901C330 901 300 901 270 901C240 901 210 901 180 901C150 901 120 901 90 901C60 901 30 901 15 901L0 901Z" fill="#e06e02"></path><path d="M0 420L15 407.3C30 394.7 60 369.3 90 367.3C120 365.3 150 386.7 180 387.8C210 389 240 370 270 367.8C300 365.7 330 380.3 360 375.5C390 370.7 420 346.3 435 334.2L450 322L450 901L435 901C420 901 390 901 360 901C330 901 300 901 270 901C240 901 210 901 180 901C150 901 120 901 90 901C60 901 30 901 15 901L0 901Z" fill="#d06003"></path><path d="M0 482L15 484.3C30 486.7 60 491.3 90 476.8C120 462.3 150 428.7 180 428.5C210 428.3 240 461.7 270 457.7C300 453.7 330 412.3 360 401C390 389.7 420 408.3 435 417.7L450 427L450 901L435 901C420 901 390 901 360 901C330 901 300 901 270 901C240 901 210 901 180 901C150 901 120 901 90 901C60 901 30 901 15 901L0 901Z" fill="#c05304"></path><path d="M0 501L15 507.7C30 514.3 60 527.7 90 542.2C120 556.7 150 572.3 180 560.7C210 549 240 510 270 494.3C300 478.7 330 486.3 360 505.7C390 525 420 556 435 571.5L450 587L450 901L435 901C420 901 390 901 360 901C330 901 300 901 270 901C240 901 210 901 180 901C150 901 120 901 90 901C60 901 30 901 15 901L0 901Z" fill="#b04604"></path><path d="M0 650L15 652.7C30 655.3 60 660.7 90 651.3C120 642 150 618 180 601.8C210 585.7 240 577.3 270 585.5C300 593.7 330 618.3 360 622C390 625.7 420 608.3 435 599.7L450 591L450 901L435 901C420 901 390 901 360 901C330 901 300 901 270 901C240 901 210 901 180 901C150 901 120 901 90 901C60 901 30 901 15 901L0 901Z" fill="#a03903"></path><path d="M0 732L15 733.8C30 735.7 60 739.3 90 740.2C120 741 150 739 180 733.7C210 728.3 240 719.7 270 708.8C300 698 330 685 360 682.8C390 680.7 420 689.3 435 693.7L450 698L450 901L435 901C420 901 390 901 360 901C330 901 300 901 270 901C240 901 210 901 180 901C150 901 120 901 90 901C60 901 30 901 15 901L0 901Z" fill="#902c02"></path><path d="M0 774L15 783.3C30 792.7 60 811.3 90 813C120 814.7 150 799.3 180 796.5C210 793.7 240 803.3 270 806.8C300 810.3 330 807.7 360 799.5C390 791.3 420 777.7 435 770.8L450 764L450 901L435 901C420 901 390 901 360 901C330 901 300 901 270 901C240 901 210 901 180 901C150 901 120 901 90 901C60 901 30 901 15 901L0 901Z" fill="#802000"></path></svg>